<mxfile host="app.diagrams.net" modified="2024-09-25T12:25:48.100Z" agent="Mozilla/5.0 (Windows NT 10.0; Win64; x64) AppleWebKit/537.36 (KHTML, like Gecko) Chrome/129.0.0.0 Safari/537.36" version="24.4.9" etag="H1y3ULJVo1uModWAg9mP" type="github">
  <diagram name="Page-1" id="OvAcYNBvn5iYwnJ8wXdj">
    <mxGraphModel>
      <root>
        <mxCell id="0" />
        <mxCell id="1" parent="0" />
      </root>
    </mxGraphModel>
  </diagram>
</mxfile>
